<svg width="31" height="29" viewBox="0 0 31 29" fill="none" xmlns="http://www.w3.org/2000/svg">
<path d="M15.3074 28.5L13.0953 26.55C10.5272 24.275 8.40402 22.3125 6.72584 20.6625C5.04766 19.0125 3.71275 17.531 2.7211 16.218C1.72945 14.906 1.03682 13.7 0.643209 12.6C0.248583 11.5 0.0512695 10.375 0.0512695 9.22497C0.0512695 6.87497 0.852218 4.91248 2.45412 3.33748C4.05601 1.76248 6.05203 0.974976 8.44216 0.974976C9.76436 0.974976 11.023 1.24998 12.2181 1.79998C13.4131 2.34998 14.4429 3.12498 15.3074 4.12498C16.1719 3.12498 17.2017 2.34998 18.3968 1.79998C19.5919 1.24998 20.8505 0.974976 22.1727 0.974976C24.5628 0.974976 26.5588 1.76248 28.1607 3.33748C29.7626 4.91248 30.5636 6.87497 30.5636 9.22497C30.5636 10.375 30.3668 11.5 29.9732 12.6C29.5786 13.7 28.8854 14.906 27.8938 16.218C26.9021 17.531 25.5672 19.0125 23.889 20.6625C22.2108 22.3125 20.0877 24.275 17.5196 26.55L15.3074 28.5ZM15.3074 24.45C17.7484 22.3 19.7571 20.456 21.3336 18.918C22.9101 17.381 24.156 16.044 25.0714 14.907C25.9867 13.769 26.6224 12.756 26.9784 11.868C27.3344 10.981 27.5124 10.1 27.5124 9.22497C27.5124 7.72497 27.0038 6.47498 25.9867 5.47498C24.9697 4.47498 23.6983 3.97498 22.1727 3.97498C20.9776 3.97498 19.8716 4.30598 18.8545 4.96798C17.8374 5.63098 17.1382 6.47498 16.7568 7.49998H13.8581C13.4767 6.47498 12.7775 5.63098 11.7604 4.96798C10.7433 4.30598 9.63722 3.97498 8.44216 3.97498C6.91654 3.97498 5.6452 4.47498 4.62812 5.47498C3.61104 6.47498 3.1025 7.72497 3.1025 9.22497C3.1025 10.1 3.28049 10.981 3.63647 11.868C3.99244 12.756 4.62812 13.769 5.54349 14.907C6.45886 16.044 7.70478 17.381 9.28125 18.918C10.8577 20.456 12.8664 22.3 15.3074 24.45Z" fill="#2B5764"/>
</svg>
