<svg width="21" height="21" viewBox="0 0 21 21" fill="none" xmlns="http://www.w3.org/2000/svg">
<path d="M1.44375 14.3659C0.9625 13.7614 0.601563 13.1409 0.360938 12.5045C0.120313 11.8682 0 11.2159 0 10.5477C0 8.41591 1.01719 6.60227 3.05156 5.10682C5.08594 3.61136 7.56875 2.86364 10.5 2.86364H10.7297L8.62969 1.33636L10.4672 0L15.7172 3.81818L10.4672 7.63636L8.62969 6.3L10.7297 4.77273H10.5C8.3125 4.77273 6.45312 5.33336 4.92188 6.45464C3.39062 7.57655 2.625 8.94091 2.625 10.5477C2.625 10.9614 2.69063 11.367 2.82188 11.7648C2.95313 12.1625 3.15 12.5523 3.4125 12.9341L1.44375 14.3659ZM10.5328 21L5.28281 17.1818L10.5328 13.3636L12.3703 14.7L10.2703 16.2273H10.5C12.6875 16.2273 14.5469 15.6666 16.0781 14.5454C17.6094 13.4235 18.375 12.0591 18.375 10.4523C18.375 10.0386 18.3094 9.63295 18.1781 9.23523C18.0469 8.8375 17.85 8.44773 17.5875 8.06591L19.5562 6.63409C20.0375 7.23864 20.3984 7.85909 20.6391 8.49545C20.8797 9.13182 21 9.78409 21 10.4523C21 12.5841 19.9828 14.3977 17.9484 15.8932C15.9141 17.3886 13.4312 18.1364 10.5 18.1364H10.2703L12.3703 19.6636L10.5328 21Z" fill="#2B5764"/>
</svg>
