<svg width="21" height="21" viewBox="0 0 21 21" fill="none" xmlns="http://www.w3.org/2000/svg">
<path d="M10.3695 20.2758L8.87094 18.8638C7.13124 17.2164 5.69298 15.7952 4.55615 14.6004C3.41932 13.4056 2.51502 12.3328 1.84326 11.382C1.1715 10.4319 0.702297 9.5586 0.435659 8.76205C0.168332 7.9655 0.034668 7.15084 0.034668 6.31809C0.034668 4.61636 0.577246 3.19524 1.6624 2.05472C2.74756 0.914207 4.0997 0.343948 5.71882 0.343948C6.6145 0.343948 7.46713 0.543086 8.27669 0.941362C9.08625 1.33964 9.78385 1.90084 10.3695 2.62498C10.9551 1.90084 11.6527 1.33964 12.4623 0.941362C13.2718 0.543086 14.1245 0.343948 15.0202 0.343948C16.6393 0.343948 17.9914 0.914207 19.0766 2.05472C20.1617 3.19524 20.7043 4.61636 20.7043 6.31809C20.7043 7.15084 20.571 7.9655 20.3043 8.76205C20.037 9.5586 19.5675 10.4319 18.8957 11.382C18.2239 12.3328 17.3197 13.4056 16.1828 14.6004C15.046 15.7952 13.6077 17.2164 11.868 18.8638L10.3695 20.2758ZM10.3695 17.3431C12.0231 15.7862 13.3838 14.4509 14.4517 13.3372C15.5197 12.2242 16.3637 11.256 16.9838 10.4326C17.6039 9.60857 18.0345 8.87502 18.2756 8.23198C18.5168 7.58967 18.6373 6.95171 18.6373 6.31809C18.6373 5.23188 18.2928 4.32671 17.6039 3.60257C16.9149 2.87843 16.0536 2.51636 15.0202 2.51636C14.2106 2.51636 13.4613 2.75605 12.7723 3.23543C12.0833 3.71553 11.6097 4.32671 11.3513 5.06895H9.38768C9.12931 4.32671 8.65563 3.71553 7.96664 3.23543C7.27765 2.75605 6.52838 2.51636 5.71882 2.51636C4.68534 2.51636 3.8241 2.87843 3.13511 3.60257C2.44613 4.32671 2.10163 5.23188 2.10163 6.31809C2.10163 6.95171 2.2222 7.58967 2.46335 8.23198C2.7045 8.87502 3.13511 9.60857 3.7552 10.4326C4.37529 11.256 5.2193 12.2242 6.28723 13.3372C7.35516 14.4509 8.71592 15.7862 10.3695 17.3431Z" fill="#2B5764"/>
</svg>
