<svg width="21" height="21" viewBox="0 0 21 21" fill="none" xmlns="http://www.w3.org/2000/svg">
<path d="M15.75 0V2.625H14.4375C13.5188 2.625 12.9675 2.8875 12.39 3.6225L8.68875 8.295L4.6725 3.6225C4.095 2.94 3.5175 2.625 2.625 2.625H0V5.25H2.625C2.49375 5.25 2.65125 5.355 2.70375 5.32875L6.9825 10.3425L2.625 15.75H0V18.375H2.625C3.54375 18.375 4.095 18.1125 4.6725 17.3775L8.68875 12.3637L13.0462 17.3775C13.6237 18.06 14.2013 18.375 15.0938 18.375H15.75V21L21 17.0625L15.75 13.125V15.75H15.1725C15.1462 15.7238 15.0413 15.645 15.015 15.6712L10.4213 10.2638L14.4375 5.25H15.75V7.875L21 3.9375L15.75 0Z" fill="#2B5764"/>
<path d="M15.75 0V2.625H14.4375C13.5188 2.625 12.9675 2.8875 12.39 3.6225L8.68875 8.295L4.6725 3.6225C4.095 2.94 3.5175 2.625 2.625 2.625H0V5.25H2.625C2.49375 5.25 2.65125 5.355 2.70375 5.32875L6.9825 10.3425L2.625 15.75H0V18.375H2.625C3.54375 18.375 4.095 18.1125 4.6725 17.3775L8.68875 12.3637L13.0462 17.3775C13.6237 18.06 14.2013 18.375 15.0938 18.375H15.75V21L21 17.0625L15.75 13.125V15.75H15.1725C15.1462 15.7238 15.0413 15.645 15.015 15.6712L10.4213 10.2638L14.4375 5.25H15.75V7.875L21 3.9375L15.75 0Z" stroke="black"/>
</svg>
