<svg width="77" height="77" viewBox="0 0 77 77" fill="none" xmlns="http://www.w3.org/2000/svg">
<circle cx="38.5" cy="38.5" r="38.361" fill="#2B5764" stroke="#2B5764" stroke-width="0.277978"/>
<g filter="url(#filter0_d_51_88)">
<circle cx="38.3611" cy="38.361" r="34.7473" fill="#2B5764"/>
<circle cx="38.3611" cy="38.361" r="34.7473" stroke="#2B5764" stroke-width="0.277978"/>
</g>
<g filter="url(#filter1_d_51_88)">
<circle cx="38.5" cy="38.5" r="30.9946" fill="#2B5764"/>
<circle cx="38.5" cy="38.5" r="30.9946" stroke="#2B5764" stroke-width="0.277978"/>
</g>
<g filter="url(#filter2_d_51_88)">
<circle cx="38.3612" cy="38.361" r="27.5199" fill="#2B5764"/>
<circle cx="38.3612" cy="38.361" r="27.5199" stroke="#2B5764" stroke-width="0.277978"/>
</g>
<g filter="url(#filter3_d_51_88)">
<circle cx="38.4999" cy="38.5" r="24.3231" fill="#2B5764"/>
<circle cx="38.4999" cy="38.5" r="24.3231" stroke="#2B5764" stroke-width="0.277978"/>
</g>
<g filter="url(#filter4_d_51_88)">
<circle cx="38.3607" cy="38.361" r="21.1264" fill="#2B5764"/>
<circle cx="38.3607" cy="38.361" r="21.1264" stroke="#2B5764" stroke-width="0.277978"/>
</g>
<g filter="url(#filter5_d_51_88)">
<circle cx="38.4999" cy="38.5" r="17.9296" fill="#2B5764"/>
<circle cx="38.4999" cy="38.5" r="17.9296" stroke="#2B5764" stroke-width="0.277978"/>
</g>
<circle cx="38.5" cy="38.5" r="13.4819" fill="#E2ECEE" fill-opacity="0.6"/>
<path d="M47.8127 39.0963C47.8127 44.3161 43.5812 48.5475 38.3614 48.5475C33.1416 48.5475 28.9102 44.3161 28.9102 39.0963C28.9102 33.8765 33.1416 29.645 38.3614 29.645C43.5812 29.645 47.8127 33.8765 47.8127 39.0963Z" fill="#99B0B7"/>
<path d="M30.4761 32.8451L30.6297 32.6621L32.1943 33.975L32.0407 34.158L31.9126 34.0505C31.9539 34.1995 31.9259 34.332 31.8287 34.4479C31.7212 34.576 31.6001 34.6459 31.4655 34.6577C31.2636 34.6753 31.0772 34.6125 30.9064 34.4692C30.7234 34.3156 30.6241 34.1491 30.6084 33.9696C30.5956 33.8238 30.6353 33.696 30.7274 33.5862C30.84 33.452 30.9789 33.3918 31.144 33.4056L30.4761 32.8451ZM30.9152 33.6969C30.864 33.7579 30.8423 33.8333 30.8502 33.923C30.86 34.0352 30.935 34.1502 31.0753 34.2679C31.2095 34.3805 31.3383 34.4314 31.4617 34.4206C31.5403 34.4138 31.6051 34.3798 31.6563 34.3188C31.7177 34.2456 31.7445 34.1642 31.7367 34.0744C31.7259 33.951 31.6564 33.8356 31.5283 33.7281C31.4002 33.6206 31.2689 33.5727 31.1342 33.5845C31.0445 33.5923 30.9715 33.6298 30.9152 33.6969Z" fill="black"/>
<path d="M31.8468 31.4073L32.0405 31.2675L32.2223 31.5193L32.0286 31.6591L31.8468 31.4073ZM32.2523 31.969L32.446 31.8292L33.229 32.9139L33.0353 33.0537L32.2523 31.969Z" fill="black"/>
<path d="M34.5145 31.9919L34.2921 32.0792L33.8034 30.8339L34.0258 30.7466L34.113 30.969C34.1825 30.7535 34.2913 30.6167 34.4396 30.5585C34.5878 30.5004 34.7239 30.4983 34.8477 30.5523C34.9303 30.5884 34.9876 30.6472 35.0196 30.7287L35.3817 31.6516L35.1594 31.7388L34.8234 30.8827C34.7972 30.816 34.7532 30.7691 34.6912 30.7421C34.6293 30.715 34.5576 30.7175 34.476 30.7495C34.4019 30.7786 34.3423 30.8448 34.2973 30.948C34.2297 31.1028 34.2207 31.2432 34.2701 31.3692L34.5145 31.9919Z" fill="black"/>
<path d="M36.4231 30.5349C36.4072 30.3284 36.4615 30.1525 36.586 30.0071C36.6959 29.8788 36.8382 29.8079 37.0128 29.7944C37.1875 29.7809 37.339 29.8291 37.4673 29.939C37.6127 30.0635 37.6933 30.229 37.7093 30.4354C37.7252 30.6419 37.671 30.8178 37.5464 30.9632C37.4365 31.0915 37.2943 31.1624 37.1196 31.1759C36.9449 31.1894 36.7935 31.1412 36.6652 31.0313C36.5198 30.9068 36.4391 30.7413 36.4231 30.5349ZM37.0294 30.0088C36.9341 30.0162 36.8572 30.0541 36.7986 30.1225C36.7107 30.2251 36.6728 30.3558 36.6851 30.5146C36.6974 30.6734 36.7506 30.7931 36.8447 30.8737C36.9216 30.9396 37.0078 30.9689 37.103 30.9615C37.1983 30.9541 37.2789 30.912 37.3448 30.835C37.4254 30.7409 37.4596 30.6145 37.4473 30.4557C37.435 30.2969 37.3776 30.1736 37.2749 30.0857C37.2065 30.0271 37.1247 30.0014 37.0294 30.0088Z" fill="black"/>
<path d="M39.2064 29.6997L40.2324 29.928L40.1882 30.1263L39.1904 30.8709L40.0415 31.0603L40 31.2468L38.8691 30.9951L38.9132 30.7969L39.911 30.0523L39.1648 29.8862L39.2064 29.6997Z" fill="black"/>
<path d="M41.7042 30.6912C41.7799 30.606 41.8721 30.5483 41.9806 30.5183C42.1 30.4852 42.2324 30.5099 42.3779 30.5922C42.5512 30.6903 42.6543 30.7991 42.6874 30.9184C42.7175 31.027 42.707 31.1263 42.656 31.2163L42.2852 31.8712C42.2421 31.9474 42.2365 32.022 42.2684 32.095L42.0189 31.9537C42.0069 31.9103 42.0185 31.8574 42.0538 31.7951C41.891 31.8402 41.73 31.8176 41.5706 31.7273C41.4389 31.6528 41.3581 31.5613 41.328 31.4528C41.3009 31.3551 41.3109 31.2647 41.358 31.1815C41.4129 31.0845 41.4892 31.0225 41.5869 30.9954C41.6954 30.9653 41.818 30.9752 41.9545 31.0251C42.0455 31.0583 42.128 31.0821 42.2022 31.0967C42.304 31.1269 42.3781 31.1414 42.4246 31.1402C42.4559 31.0848 42.4626 31.0245 42.4446 30.9594C42.4265 30.8943 42.3794 30.8401 42.3032 30.797C42.2062 30.7421 42.1251 30.7236 42.06 30.7417C42.0166 30.7537 41.9742 30.78 41.9329 30.8207L41.7042 30.6912ZM42.3128 31.3377C42.2633 31.328 42.2193 31.3169 42.1808 31.3042C42.0473 31.2652 41.9454 31.235 41.8752 31.2135C41.8119 31.196 41.7586 31.1932 41.7152 31.2053C41.6609 31.2203 41.622 31.2486 41.5985 31.2902C41.571 31.3387 41.5648 31.3901 41.5798 31.4443C41.5888 31.4769 41.628 31.5128 41.6973 31.552C41.8151 31.6187 41.9337 31.6355 42.0531 31.6025C42.129 31.5814 42.1764 31.5625 42.1951 31.5456L42.3128 31.3377Z" fill="black"/>
<path d="M44.1781 31.6458L44.3598 31.8356L43.8892 32.8814L44.9545 32.4569L45.1362 32.6467L43.7561 33.1741L43.5909 33.0016L44.1781 31.6458Z" fill="black"/>
<path d="M46.1549 34.1769C46.327 34.2301 46.4633 34.3518 46.5636 34.5419L46.3312 34.6646C46.3234 34.6327 46.3065 34.5921 46.2805 34.5428C46.2247 34.4372 46.1269 34.3628 45.987 34.3195C45.8687 34.2829 45.7598 34.2729 45.6604 34.2893L45.0583 34.6071L44.9468 34.3958L46.1299 33.7714L46.2414 33.9827L45.9456 34.1388C46.0206 34.1442 46.0903 34.157 46.1549 34.1769Z" fill="black"/>
<circle cx="38.3609" cy="38.639" r="1.11191" fill="#61767C"/>
<defs>
<filter id="filter0_d_51_88" x="2.3627" y="2.36282" width="71.9968" height="71.9964" filterUnits="userSpaceOnUse" color-interpolation-filters="sRGB">
<feFlood flood-opacity="0" result="BackgroundImageFix"/>
<feColorMatrix in="SourceAlpha" type="matrix" values="0 0 0 0 0 0 0 0 0 0 0 0 0 0 0 0 0 0 127 0" result="hardAlpha"/>
<feOffset/>
<feGaussianBlur stdDeviation="0.555957"/>
<feComposite in2="hardAlpha" operator="out"/>
<feColorMatrix type="matrix" values="0 0 0 0 0 0 0 0 0 0 0 0 0 0 0 0 0 0 0.25 0"/>
<feBlend mode="normal" in2="BackgroundImageFix" result="effect1_dropShadow_51_88"/>
<feBlend mode="normal" in="SourceGraphic" in2="effect1_dropShadow_51_88" result="shape"/>
</filter>
<filter id="filter1_d_51_88" x="6.2543" y="6.25454" width="64.4909" height="64.491" filterUnits="userSpaceOnUse" color-interpolation-filters="sRGB">
<feFlood flood-opacity="0" result="BackgroundImageFix"/>
<feColorMatrix in="SourceAlpha" type="matrix" values="0 0 0 0 0 0 0 0 0 0 0 0 0 0 0 0 0 0 127 0" result="hardAlpha"/>
<feOffset/>
<feGaussianBlur stdDeviation="0.555957"/>
<feComposite in2="hardAlpha" operator="out"/>
<feColorMatrix type="matrix" values="0 0 0 0 0 0 0 0 0 0 0 0 0 0 0 0 0 0 0.25 0"/>
<feBlend mode="normal" in2="BackgroundImageFix" result="effect1_dropShadow_51_88"/>
<feBlend mode="normal" in="SourceGraphic" in2="effect1_dropShadow_51_88" result="shape"/>
</filter>
<filter id="filter2_d_51_88" x="9.59024" y="9.5903" width="57.5417" height="57.5415" filterUnits="userSpaceOnUse" color-interpolation-filters="sRGB">
<feFlood flood-opacity="0" result="BackgroundImageFix"/>
<feColorMatrix in="SourceAlpha" type="matrix" values="0 0 0 0 0 0 0 0 0 0 0 0 0 0 0 0 0 0 127 0" result="hardAlpha"/>
<feOffset/>
<feGaussianBlur stdDeviation="0.555957"/>
<feComposite in2="hardAlpha" operator="out"/>
<feColorMatrix type="matrix" values="0 0 0 0 0 0 0 0 0 0 0 0 0 0 0 0 0 0 0.25 0"/>
<feBlend mode="normal" in2="BackgroundImageFix" result="effect1_dropShadow_51_88"/>
<feBlend mode="normal" in="SourceGraphic" in2="effect1_dropShadow_51_88" result="shape"/>
</filter>
<filter id="filter3_d_51_88" x="12.9257" y="12.926" width="51.1481" height="51.148" filterUnits="userSpaceOnUse" color-interpolation-filters="sRGB">
<feFlood flood-opacity="0" result="BackgroundImageFix"/>
<feColorMatrix in="SourceAlpha" type="matrix" values="0 0 0 0 0 0 0 0 0 0 0 0 0 0 0 0 0 0 127 0" result="hardAlpha"/>
<feOffset/>
<feGaussianBlur stdDeviation="0.555957"/>
<feComposite in2="hardAlpha" operator="out"/>
<feColorMatrix type="matrix" values="0 0 0 0 0 0 0 0 0 0 0 0 0 0 0 0 0 0 0.25 0"/>
<feBlend mode="normal" in2="BackgroundImageFix" result="effect1_dropShadow_51_88"/>
<feBlend mode="normal" in="SourceGraphic" in2="effect1_dropShadow_51_88" result="shape"/>
</filter>
<filter id="filter4_d_51_88" x="15.9833" y="15.9837" width="44.7546" height="44.7545" filterUnits="userSpaceOnUse" color-interpolation-filters="sRGB">
<feFlood flood-opacity="0" result="BackgroundImageFix"/>
<feColorMatrix in="SourceAlpha" type="matrix" values="0 0 0 0 0 0 0 0 0 0 0 0 0 0 0 0 0 0 127 0" result="hardAlpha"/>
<feOffset/>
<feGaussianBlur stdDeviation="0.555957"/>
<feComposite in2="hardAlpha" operator="out"/>
<feColorMatrix type="matrix" values="0 0 0 0 0 0 0 0 0 0 0 0 0 0 0 0 0 0 0.25 0"/>
<feBlend mode="normal" in2="BackgroundImageFix" result="effect1_dropShadow_51_88"/>
<feBlend mode="normal" in="SourceGraphic" in2="effect1_dropShadow_51_88" result="shape"/>
</filter>
<filter id="filter5_d_51_88" x="19.3192" y="19.3195" width="38.361" height="38.361" filterUnits="userSpaceOnUse" color-interpolation-filters="sRGB">
<feFlood flood-opacity="0" result="BackgroundImageFix"/>
<feColorMatrix in="SourceAlpha" type="matrix" values="0 0 0 0 0 0 0 0 0 0 0 0 0 0 0 0 0 0 127 0" result="hardAlpha"/>
<feOffset/>
<feGaussianBlur stdDeviation="0.555957"/>
<feComposite in2="hardAlpha" operator="out"/>
<feColorMatrix type="matrix" values="0 0 0 0 0 0 0 0 0 0 0 0 0 0 0 0 0 0 0.25 0"/>
<feBlend mode="normal" in2="BackgroundImageFix" result="effect1_dropShadow_51_88"/>
<feBlend mode="normal" in="SourceGraphic" in2="effect1_dropShadow_51_88" result="shape"/>
</filter>
</defs>
</svg>
