<svg width="27" height="27" viewBox="0 0 27 27" fill="none" xmlns="http://www.w3.org/2000/svg">
<path d="M9.80597 27L9.26866 22.68C8.97761 22.5675 8.70358 22.4325 8.44657 22.275C8.18866 22.1175 7.93657 21.9487 7.6903 21.7687L3.69403 23.4562L0 17.0437L3.45896 14.4112C3.43657 14.2537 3.42537 14.1016 3.42537 13.9549V13.0437C3.42537 12.8979 3.43657 12.7462 3.45896 12.5887L0 9.95625L3.69403 3.54375L7.6903 5.23125C7.93657 5.05125 8.19403 4.8825 8.46269 4.725C8.73134 4.5675 9 4.4325 9.26866 4.32L9.80597 0H17.194L17.7313 4.32C18.0224 4.4325 18.2969 4.5675 18.5548 4.725C18.8118 4.8825 19.0634 5.05125 19.3097 5.23125L23.306 3.54375L27 9.95625L23.541 12.5887C23.5634 12.7462 23.5746 12.8979 23.5746 13.0437V13.9549C23.5746 14.1016 23.5522 14.2537 23.5075 14.4112L26.9664 17.0437L23.2724 23.4562L19.3097 21.7687C19.0634 21.9487 18.806 22.1175 18.5373 22.275C18.2687 22.4325 18 22.5675 17.7313 22.68L17.194 27H9.80597ZM13.5672 18.225C14.8657 18.225 15.9739 17.7638 16.8918 16.8412C17.8097 15.9187 18.2687 14.805 18.2687 13.5C18.2687 12.195 17.8097 11.0812 16.8918 10.1587C15.9739 9.23625 14.8657 8.775 13.5672 8.775C12.2463 8.775 11.1322 9.23625 10.2251 10.1587C9.31881 11.0812 8.86567 12.195 8.86567 13.5C8.86567 14.805 9.31881 15.9187 10.2251 16.8412C11.1322 17.7638 12.2463 18.225 13.5672 18.225ZM13.5672 15.525C13.0075 15.525 12.5319 15.3279 12.1406 14.9337C11.7484 14.5404 11.5522 14.0625 11.5522 13.5C11.5522 12.9375 11.7484 12.4596 12.1406 12.0663C12.5319 11.6721 13.0075 11.475 13.5672 11.475C14.1269 11.475 14.6028 11.6721 14.9951 12.0663C15.3864 12.4596 15.5821 12.9375 15.5821 13.5C15.5821 14.0625 15.3864 14.5404 14.9951 14.9337C14.6028 15.3279 14.1269 15.525 13.5672 15.525ZM12.1567 24.3H14.8097L15.2799 20.7225C15.9739 20.5425 16.6178 20.2779 17.2115 19.9287C17.8043 19.5804 18.347 19.1587 18.8396 18.6637L22.1642 20.0475L23.4739 17.7525L20.5858 15.5587C20.6978 15.2437 20.7761 14.9116 20.8209 14.5624C20.8657 14.2141 20.8881 13.86 20.8881 13.5C20.8881 13.14 20.8657 12.7854 20.8209 12.4362C20.7761 12.0879 20.6978 11.7562 20.5858 11.4412L23.4739 9.2475L22.1642 6.9525L18.8396 8.37C18.347 7.8525 17.8043 7.41915 17.2115 7.06995C16.6178 6.72165 15.9739 6.4575 15.2799 6.2775L14.8433 2.7H12.1903L11.7201 6.2775C11.0261 6.4575 10.3827 6.72165 9.78985 7.06995C9.19612 7.41915 8.65298 7.84125 8.16045 8.33625L4.83582 6.9525L3.52612 9.2475L6.41418 11.4075C6.30224 11.745 6.22388 12.0825 6.1791 12.42C6.13433 12.7575 6.11194 13.1175 6.11194 13.5C6.11194 13.86 6.13433 14.2087 6.1791 14.5462C6.22388 14.8837 6.30224 15.2212 6.41418 15.5587L3.52612 17.7525L4.83582 20.0475L8.16045 18.63C8.65298 19.1475 9.19612 19.5804 9.78985 19.9287C10.3827 20.2779 11.0261 20.5425 11.7201 20.7225L12.1567 24.3Z" fill="#2B5764"/>
</svg>
