<svg width="26" height="27" viewBox="0 0 26 27" fill="none" xmlns="http://www.w3.org/2000/svg">
<path d="M17.875 0C16.2175 0 14.7875 1.1375 13.91 2.86C15.3725 4.615 16.25 7.02 16.25 9.7825C16.25 10.725 16.1525 11.57 15.9575 12.415C16.575 12.7725 17.1925 13.0325 17.875 13.0325C20.5725 13.0325 22.75 10.1075 22.75 6.5325C22.75 2.9575 20.5725 0.0325 17.875 0.0325V0ZM8.125 3.25C5.4275 3.25 3.25 6.175 3.25 9.75C3.25 13.325 5.4275 16.25 8.125 16.25C10.8225 16.25 13 13.325 13 9.75C13 6.175 10.8225 3.25 8.125 3.25ZM23.5625 13.52C22.165 15.1775 20.2475 16.185 18.07 16.25C18.9475 17.485 19.5 18.98 19.5 20.605V22.75H26V17.355C26 15.665 24.9925 14.2025 23.5625 13.4875V13.52ZM2.4375 16.77C1.0075 17.485 0 18.9475 0 20.6375V26.0325H16.25V20.6375C16.25 18.9475 15.2425 17.485 13.8125 16.77C12.35 18.4925 10.3675 19.5 8.125 19.5C5.8825 19.5 3.9 18.46 2.4375 16.77Z" fill="#2B5764"/>
</svg>
