<svg width="32" height="30" viewBox="0 0 32 30" fill="none" xmlns="http://www.w3.org/2000/svg">
<path d="M15.9998 28.7625L13.7877 26.8125C11.2195 24.5375 9.0964 22.575 7.41822 20.925C5.74004 19.275 4.40513 17.7935 3.41348 16.4805C2.42183 15.1685 1.7292 13.9625 1.33559 12.8625C0.940965 11.7625 0.743652 10.6375 0.743652 9.48749C0.743652 7.13749 1.5446 5.17499 3.1465 3.59999C4.74839 2.02499 6.74441 1.23749 9.13454 1.23749C10.4567 1.23749 11.7154 1.51249 12.9104 2.06249C14.1055 2.61249 15.1353 3.38749 15.9998 4.38749C16.8643 3.38749 17.8941 2.61249 19.0892 2.06249C20.2843 1.51249 21.5429 1.23749 22.8651 1.23749C25.2552 1.23749 27.2512 2.02499 28.8531 3.59999C30.455 5.17499 31.256 7.13749 31.256 9.48749C31.256 10.6375 31.0592 11.7625 30.6656 12.8625C30.2709 13.9625 29.5778 15.1685 28.5861 16.4805C27.5945 17.7935 26.2596 19.275 24.5814 20.925C22.9032 22.575 20.7801 24.5375 18.212 26.8125L15.9998 28.7625Z" fill="#2B5764" stroke="#2B5764"/>
</svg>
