<svg width="26" height="26" viewBox="0 0 26 26" fill="none" xmlns="http://www.w3.org/2000/svg">
<path d="M26 0C9.75 0 6.5 3.25 6.5 3.25V16.5425C6.0125 16.38 5.4275 16.25 4.875 16.25C2.1775 16.25 0 18.4275 0 21.125C0 23.8225 2.1775 26 4.875 26C7.5725 26 9.75 23.8225 9.75 21.125V8.2225C12.1225 7.475 16.2175 6.7925 22.75 6.5975V13.2925C22.2625 13.13 21.6775 13 21.125 13C18.4275 13 16.25 15.1775 16.25 17.875C16.25 20.5725 18.4275 22.75 21.125 22.75C23.8225 22.75 26 20.5725 26 17.875V0Z" fill="#2B5764"/>
</svg>
